<svg xmlns="http://www.w3.org/2000/svg" xmlns:xlink="http://www.w3.org/1999/xlink" width="1920" zoomAndPan="magnify" viewBox="0 0 1440 809.999993" height="1080" preserveAspectRatio="xMidYMid meet" version="1.2"><defs/><g id="07ccc3dbc1"><g style="fill:#760504;fill-opacity:1;"><g transform="translate(362.221956, 458.908022)"><path style="stroke:none" d="M 91.109375 -40.03125 L 116.09375 -20.78125 C 111.375 -13.707031 104.515625 -8.066406 95.515625 -3.859375 C 86.523438 0.335938 77.019531 2.4375 67 2.4375 C 58.59375 2.4375 50.738281 0.925781 43.4375 -2.09375 C 36.144531 -5.125 29.695312 -9.328125 24.09375 -14.703125 C 18.5 -20.085938 14.148438 -26.28125 11.046875 -33.28125 C 7.953125 -40.28125 6.40625 -47.757812 6.40625 -55.71875 C 6.40625 -66.476562 9.019531 -76.28125 14.25 -85.125 C 19.488281 -93.976562 26.492188 -101.019531 35.265625 -106.25 C 44.035156 -111.476562 53.726562 -114.09375 64.34375 -114.09375 C 73.632812 -114.09375 82.035156 -112.25 89.546875 -108.5625 C 97.066406 -104.882812 103.476562 -100.0625 108.78125 -94.09375 C 114.09375 -88.125 117.859375 -81.671875 120.078125 -74.734375 L 57.71875 -30.078125 C 59.1875 -29.484375 60.691406 -29.113281 62.234375 -28.96875 C 63.785156 -28.820312 65.375 -28.75 67 -28.75 C 71.71875 -28.75 76.285156 -29.628906 80.703125 -31.390625 C 85.128906 -33.160156 88.597656 -36.039062 91.109375 -40.03125 Z M 38.25 -55.71875 C 38.25 -52.769531 38.546875 -50.335938 39.140625 -48.421875 L 79.828125 -77.390625 C 77.617188 -79.015625 75.222656 -80.304688 72.640625 -81.265625 C 70.054688 -82.222656 67.289062 -82.703125 64.34375 -82.703125 C 57.125 -82.703125 50.96875 -80.15625 45.875 -75.0625 C 40.789062 -69.976562 38.25 -63.53125 38.25 -55.71875 Z M 38.25 -55.71875 "/></g></g><g style="fill:#760504;fill-opacity:1;"><g transform="translate(479.408412, 458.908022)"><path style="stroke:none" d="M 55.28125 -72.96875 C 40.976562 -74.59375 29.550781 -79.601562 21 -88 C 12.457031 -96.40625 8.1875 -107.097656 8.1875 -120.078125 C 8.1875 -127.003906 9.625 -133.378906 12.5 -139.203125 C 15.375 -145.023438 19.164062 -150.070312 23.875 -154.34375 C 28.59375 -158.613281 33.789062 -161.890625 39.46875 -164.171875 C 45.144531 -166.460938 50.859375 -167.609375 56.609375 -167.609375 C 64.859375 -167.609375 72.742188 -165.945312 80.265625 -162.625 C 87.785156 -159.3125 94.710938 -153.898438 101.046875 -146.390625 L 74.078125 -126.703125 C 71.867188 -129.066406 69.140625 -131.019531 65.890625 -132.5625 C 62.648438 -134.113281 59.554688 -134.890625 56.609375 -134.890625 C 52.035156 -134.890625 48.347656 -133.597656 45.546875 -131.015625 C 42.742188 -128.429688 41.34375 -124.859375 41.34375 -120.296875 C 41.34375 -116.609375 43 -113.253906 46.3125 -110.234375 C 49.632812 -107.210938 55.644531 -105.40625 64.34375 -104.8125 C 73.78125 -104.21875 82.367188 -101.785156 90.109375 -97.515625 C 97.847656 -93.242188 104.035156 -87.273438 108.671875 -79.609375 C 113.316406 -71.941406 115.640625 -62.800781 115.640625 -52.1875 C 115.640625 -41.570312 113.023438 -32.097656 107.796875 -23.765625 C 102.566406 -15.441406 95.710938 -8.921875 87.234375 -4.203125 C 78.753906 0.515625 69.648438 2.875 59.921875 2.875 C 50.484375 2.875 41.195312 0.992188 32.0625 -2.765625 C 22.925781 -6.523438 14.453125 -12.679688 6.640625 -21.234375 L 34.9375 -42.015625 C 38.769531 -37.296875 42.675781 -34.125 46.65625 -32.5 C 50.632812 -30.882812 55.054688 -30.078125 59.921875 -30.078125 C 65.523438 -30.078125 70.28125 -32.03125 74.1875 -35.9375 C 78.09375 -39.84375 80.046875 -44.445312 80.046875 -49.75 C 80.046875 -56.382812 77.90625 -61.691406 73.625 -65.671875 C 69.351562 -69.648438 63.238281 -72.082031 55.28125 -72.96875 Z M 55.28125 -72.96875 "/></g></g><g style="fill:#760504;fill-opacity:1;"><g transform="translate(593.057124, 458.908022)"><path style="stroke:none" d="M 51.296875 -39.359375 L 42.453125 -30.953125 L 42.453125 0 L 11.0625 0 L 11.0625 -164.734375 L 42.453125 -164.734375 L 42.453125 -67.21875 L 90 -111.671875 L 128.921875 -111.671875 L 72.75 -59.484375 L 131.34375 0 L 91.328125 0 Z M 51.296875 -39.359375 "/></g></g><g style="fill:#760504;fill-opacity:1;"><g transform="translate(713.781326, 458.908022)"><path style="stroke:none" d="M 64.34375 -114.09375 C 72.300781 -114.09375 79.851562 -112.582031 87 -109.5625 C 94.15625 -106.539062 100.421875 -102.335938 105.796875 -96.953125 C 111.179688 -91.578125 115.421875 -85.390625 118.515625 -78.390625 C 121.617188 -71.390625 123.171875 -63.832031 123.171875 -55.71875 C 123.171875 -47.757812 121.617188 -40.28125 118.515625 -33.28125 C 115.421875 -26.28125 111.179688 -20.085938 105.796875 -14.703125 C 100.421875 -9.328125 94.15625 -5.125 87 -2.09375 C 79.851562 0.925781 72.300781 2.4375 64.34375 2.4375 C 56.382812 2.4375 48.90625 0.925781 41.90625 -2.09375 C 34.90625 -5.125 28.75 -9.328125 23.4375 -14.703125 C 18.132812 -20.085938 13.96875 -26.28125 10.9375 -33.28125 C 7.914062 -40.28125 6.40625 -47.757812 6.40625 -55.71875 C 6.40625 -66.476562 9.019531 -76.28125 14.25 -85.125 C 19.488281 -93.976562 26.492188 -101.019531 35.265625 -106.25 C 44.035156 -111.476562 53.726562 -114.09375 64.34375 -114.09375 Z M 64.34375 -28.75 C 72.007812 -28.75 78.382812 -31.253906 83.46875 -36.265625 C 88.5625 -41.273438 91.109375 -47.757812 91.109375 -55.71875 C 91.109375 -63.53125 88.5625 -69.976562 83.46875 -75.0625 C 78.382812 -80.15625 72.007812 -82.703125 64.34375 -82.703125 C 57.125 -82.703125 50.96875 -80.15625 45.875 -75.0625 C 40.789062 -69.976562 38.25 -63.53125 38.25 -55.71875 C 38.25 -47.757812 40.789062 -41.273438 45.875 -36.265625 C 50.96875 -31.253906 57.125 -28.75 64.34375 -28.75 Z M 64.34375 -28.75 "/></g></g><g style="fill:#760504;fill-opacity:1;"><g transform="translate(834.063275, 458.908022)"><path style="stroke:none" d="M 11.0625 -164.734375 L 42.453125 -164.734375 L 42.453125 0 L 11.0625 0 Z M 11.0625 -164.734375 "/></g></g><g style="fill:#760504;fill-opacity:1;"><g transform="translate(878.283895, 458.908022)"><path style="stroke:none" d="M 88.453125 -111.671875 L 119.84375 -111.671875 L 119.84375 0 L 88.453125 0 L 88.453125 -7.953125 C 86.085938 -4.710938 82.25 -2.171875 76.9375 -0.328125 C 71.632812 1.515625 66.40625 2.4375 61.25 2.4375 C 51.082031 2.4375 41.867188 -0.210938 33.609375 -5.515625 C 25.359375 -10.828125 18.757812 -17.867188 13.8125 -26.640625 C 8.875 -35.410156 6.40625 -45.101562 6.40625 -55.71875 C 6.40625 -66.476562 8.910156 -76.28125 13.921875 -85.125 C 18.941406 -93.976562 25.613281 -101.019531 33.9375 -106.25 C 42.269531 -111.476562 51.375 -114.09375 61.25 -114.09375 C 66.257812 -114.09375 71.453125 -113.0625 76.828125 -111 C 82.210938 -108.9375 86.085938 -106.578125 88.453125 -103.921875 Z M 64.34375 -28.75 C 71.71875 -28.75 77.800781 -31.253906 82.59375 -36.265625 C 87.382812 -41.273438 89.78125 -47.757812 89.78125 -55.71875 C 89.78125 -63.53125 87.382812 -69.976562 82.59375 -75.0625 C 77.800781 -80.15625 71.71875 -82.703125 64.34375 -82.703125 C 57.125 -82.703125 50.96875 -80.15625 45.875 -75.0625 C 40.789062 -69.976562 38.25 -63.53125 38.25 -55.71875 C 38.25 -47.757812 40.789062 -41.273438 45.875 -36.265625 C 50.96875 -31.253906 57.125 -28.75 64.34375 -28.75 Z M 64.34375 -28.75 "/></g></g><g style="fill:#760504;fill-opacity:1;"><g transform="translate(999.892553, 458.908022)"><path style="stroke:none" d="M 74.96875 -113.65625 L 74.96875 -81.15625 C 72.007812 -82.1875 68.691406 -82.703125 65.015625 -82.703125 C 58.960938 -82.703125 53.6875 -80.453125 49.1875 -75.953125 C 44.695312 -71.460938 42.453125 -64.71875 42.453125 -55.71875 L 42.453125 0 L 11.0625 0 L 11.0625 -111.671875 L 42.453125 -111.671875 L 42.453125 -103.921875 C 45.847656 -107.609375 49.753906 -110.222656 54.171875 -111.765625 C 58.597656 -113.316406 62.945312 -114.09375 67.21875 -114.09375 C 68.550781 -114.09375 69.804688 -114.09375 70.984375 -114.09375 C 72.160156 -114.09375 73.488281 -113.945312 74.96875 -113.65625 Z M 74.96875 -113.65625 "/></g></g></g></svg>